<svg id="Capa_1" data-name="Capa 1" xmlns="http://www.w3.org/2000/svg" viewBox="0 0 100 75.72"><defs><style>.cls-1{fill:#e60000;}</style></defs><path class="cls-1" d="M96.1,18.44H3.9c-.72,0-1.29-.82-1.29-1.85s.57-1.84,1.29-1.84H96.1c.72,0,1.29.82,1.29,1.84S96.82,18.44,96.1,18.44Z" transform="translate(0 -12.14)"/><path class="cls-1" d="M96.1,21.05H3.9c-2.19,0-3.9-2-3.9-4.45s1.71-4.46,3.9-4.46H96.1c2.19,0,3.9,2,3.9,4.46S98.29,21.05,96.1,21.05Z" transform="translate(0 -12.14)"/><path class="cls-1" d="M96.1,51.85H3.9c-.72,0-1.29-.83-1.29-1.85s.57-1.85,1.29-1.85H96.1c.72,0,1.29.83,1.29,1.85S96.82,51.85,96.1,51.85Z" transform="translate(0 -12.14)"/><path class="cls-1" d="M96.1,54.46H3.9C1.71,54.46,0,52.5,0,50s1.71-4.46,3.9-4.46H96.1c2.19,0,3.9,2,3.9,4.46S98.29,54.46,96.1,54.46Z" transform="translate(0 -12.14)"/><path class="cls-1" d="M96.1,85.25H3.9c-.72,0-1.29-.83-1.29-1.85s.57-1.84,1.29-1.84H96.1c.72,0,1.29.82,1.29,1.84S96.82,85.25,96.1,85.25Z" transform="translate(0 -12.14)"/><path class="cls-1" d="M96.1,87.86H3.9c-2.19,0-3.9-2-3.9-4.46S1.71,79,3.9,79H96.1c2.19,0,3.9,2,3.9,4.45S98.29,87.86,96.1,87.86Z" transform="translate(0 -12.14)"/></svg>