<svg id="Capa_1" data-name="Capa 1" xmlns="http://www.w3.org/2000/svg" viewBox="0 0 100 89.07"><defs><style>.cls-1{fill:#e60000;}</style></defs><path class="cls-1" d="M87.44,72.68H32.85L19.36,5.47H2.85a2.85,2.85,0,0,0,0,5.7H14.69l12.5,62.31a11,11,0,1,0,13.62,4.9H77.9a10.76,10.76,0,0,0-1.39,5.22A10.93,10.93,0,1,0,87.44,72.68ZM36.5,83.6a5.23,5.23,0,1,1-5.27-5.22h.07A5.23,5.23,0,0,1,36.5,83.6Zm50.94,5.23a5.23,5.23,0,0,1,0-10.45h0a5.23,5.23,0,1,1,0,10.45Z" transform="translate(0 -5.47)"/><path class="cls-1" d="M86.33,64.51H40.72a2.85,2.85,0,1,1,0-5.7H86.33a3,3,0,0,0,2.93-2.43l5-26.76a3,3,0,0,0-2.93-3.52h-60a2.85,2.85,0,1,1,0-5.7H91.32a8.67,8.67,0,0,1,8.53,10.27l-5,26.76A8.67,8.67,0,0,1,86.33,64.51Z" transform="translate(0 -5.47)"/></svg>