<svg id="Capa_1" data-name="Capa 1" xmlns="http://www.w3.org/2000/svg" viewBox="0 0 100 90.77"><defs><style>.cls-1{fill:#e60000;}</style></defs><path class="cls-1" d="M69.36,4.61A30.65,30.65,0,0,0,50,11.48,30.62,30.62,0,0,0,.08,34.87C-.25,37.51-1.76,61.64,48.2,94l2.12,1.37,2-1.49,5.22-3.76c21.25-15.27,41.31-29.7,42.36-53.06q.06-.9.06-1.83A30.67,30.67,0,0,0,69.36,4.61ZM92.64,35.25c0,.47,0,.93,0,1.45C91.71,56.54,73,70,53.28,84.17L50.1,86.46C5.78,57.06,7.37,35.88,7.4,35.64l0-.39A23.27,23.27,0,0,1,47.39,19L50,21.75,52.67,19a23.27,23.27,0,0,1,40,16.22Z" transform="translate(0 -4.61)"/></svg>