<?xml version="1.0" encoding="utf-8"?>
<!-- Generator: Adobe Illustrator 21.1.0, SVG Export Plug-In . SVG Version: 6.00 Build 0)  -->
<svg version="1.1" id="Capa_1" xmlns="http://www.w3.org/2000/svg" xmlns:xlink="http://www.w3.org/1999/xlink" x="0px" y="0px"
	 viewBox="0 0 20 20" style="enable-background:new 0 0 20 20;" xml:space="preserve">
<style type="text/css">
	.st0{fill:#E60000;}
</style>
<g>
	<path class="st0" d="M19.1,1.6H0.9C0.4,1.6,0,2.1,0,2.6v12.2c0,0.6,0.4,1,0.9,1h18.2c0.5,0,0.9-0.5,0.9-1V2.6
		C20,2.1,19.6,1.6,19.1,1.6z M9.7,15.3c-0.3,0-0.6-0.3-0.6-0.6s0.3-0.6,0.6-0.6c0.3,0,0.6,0.3,0.6,0.6S10,15.3,9.7,15.3z M19.1,12.9
		c0,0.6-0.4,1-0.9,1H1.6c-0.5,0-0.9-0.5-0.9-1V3.6c0-0.6,0.4-1,0.9-1h16.6c0.5,0,0.9,0.5,0.9,1V12.9z"/>
	<path class="st0" d="M15.8,17.6h-2.4l-0.9-1.5H7.4l-0.8,1.5H4.2c-0.7,0-1.2,0.3-1.2,0.6c0,0,0,0.1,0,0.1h14c0,0,0-0.1,0-0.1
		C17,17.9,16.4,17.6,15.8,17.6z"/>
</g>
</svg>
