<svg id="Capa_1" data-name="Capa 1" xmlns="http://www.w3.org/2000/svg" viewBox="0 0 92.86 100"><defs><style>.cls-1{fill:#e60000;}</style></defs><path class="cls-1" d="M51.15,6.36A18.9,18.9,0,1,1,32.26,25.25,18.92,18.92,0,0,1,51.15,6.36m0-6.36A25.26,25.26,0,1,0,76.41,25.25,25.26,25.26,0,0,0,51.15,0Z" transform="translate(-3.57)"/><path class="cls-1" d="M30.32,53.85a31.5,31.5,0,0,0,41.16.43A26.65,26.65,0,0,1,90.07,79.65v14H9.93v-14a26.85,26.85,0,0,1,20.39-25.8M32.4,47C16.28,49.19,3.57,63,3.57,79.65V100H96.43V79.65A33,33,0,0,0,69.64,47.27,25.16,25.16,0,0,1,32.4,47Z" transform="translate(-3.57)"/></svg>